<?xml version="1.0" standalone="no"?>
<!DOCTYPE svg PUBLIC "-//W3C//DTD SVG 20010904//EN"
 "http://www.w3.org/TR/2001/REC-SVG-20010904/DTD/svg10.dtd">
<svg version="1.0" xmlns="http://www.w3.org/2000/svg"
 width="640.000000pt" height="640.000000pt" viewBox="0 0 640.000000 640.000000"
 preserveAspectRatio="xMidYMid meet">

<g transform="translate(0.000000,640.000000) scale(0.100000,-0.100000)"
fill="#000000" stroke="none">
<path d="M3021 4725 c-107 -24 -155 -43 -234 -95 -176 -116 -283 -303 -323
-561 -56 -362 88 -805 313 -968 l63 -46 0 -55 0 -55 -122 -34 c-166 -46 -416
-130 -508 -170 -413 -181 -550 -412 -550 -927 0 -109 2 -129 18 -140 14 -11
119 -13 529 -14 l512 0 15 22 c21 30 20 54 -4 78 -19 19 -33 20 -486 20 l-467
0 7 122 c31 529 183 668 979 893 92 27 175 54 185 61 14 10 18 32 20 121 2 59
-1 120 -6 134 -6 16 -32 38 -64 57 -165 93 -293 349 -316 635 -24 286 45 515
197 662 64 63 126 99 216 127 94 29 308 31 400 4 175 -53 304 -176 371 -352
141 -375 7 -924 -263 -1076 -29 -17 -58 -39 -64 -50 -14 -26 -8 -243 7 -258 6
-6 96 -36 200 -66 270 -78 413 -128 543 -190 310 -147 403 -301 427 -701 l7
-123 -467 0 c-453 0 -467 -1 -486 -20 -24 -24 -25 -48 -4 -78 l15 -22 513 0
c484 0 514 1 529 18 33 36 18 366 -24 530 -87 344 -327 509 -1016 703 l-123
34 0 55 0 56 55 39 c142 102 264 323 309 564 49 259 22 501 -81 709 -81 165
-232 293 -403 342 -98 29 -324 37 -419 15z"/>
<path d="M2945 2718 c-11 -6 -75 -66 -142 -133 -99 -98 -123 -127 -123 -150 0
-22 21 -49 100 -129 l99 -101 -99 -101 c-77 -77 -100 -107 -100 -128 0 -21 29
-56 128 -158 166 -169 157 -168 293 -32 l99 99 98 -96 c53 -53 105 -99 115
-103 31 -10 68 18 190 143 90 93 117 127 117 147 0 21 -23 51 -100 128 l-99
101 99 101 c78 79 100 107 100 129 0 22 -24 52 -122 150 -131 130 -156 149
-185 139 -10 -4 -62 -50 -115 -103 l-98 -96 -97 97 c-103 101 -125 114 -158
96z m115 -234 c100 -101 130 -120 163 -103 12 6 64 52 114 102 l93 92 70 -70
70 -69 -100 -102 c-79 -80 -100 -107 -100 -130 0 -22 20 -48 100 -128 l100
-100 -70 -71 -70 -70 -99 99 c-132 132 -130 132 -262 0 l-99 -99 -70 70 -70
69 100 102 c79 79 100 107 100 129 0 22 -21 50 -100 129 l-100 102 68 67 c37
37 69 67 72 67 3 0 44 -39 90 -86z"/>
</g>
</svg>
